{"title":"Romeo Ranjha (2014) DVDRip - XviD - 1CD Esub [DDR ExclusivE]","uid":11542584,"size":730234273,"categoryP":"video","categoryS":"movies","magnet":"?xt=urn:btih:238952ef879de54fb0ceeb8d0e72ea54c4212619&amp;dn=Romeo+Ranjha+%282014%29+DVDRip+-+XviD+-+1CD+Esub+%5BDDR+ExclusivE%5D&amp;tr=udp%3A%2F%2Ftracker.openbittorrent.com%3A80&amp;tr=udp%3A%2F%2Fopen.demonii.com%3A1337&amp;tr=udp%3A%2F%2Ftracker.coppersurfer.tk%3A6969&amp;tr=udp%3A%2F%2Fexodus.desync.com%3A6969","seeders":2,"leechers":0,"uploader":"SaM","files":2,"time":1416683235,"description":"Movie Info\nMovie Name : Romeo Ranjha\nStarring : Jazzy B, Garry Sandhu, Monica Bedi, Rana Ranbir &amp; More\nDirected : Navaniat Singh\nProducer : Basic Brothers\nIMDB : http://www.imdb.com/title/tt3671074/\nMovie Release Date : 16 May 2014\nRipper : AnMoL\nSource : DVD9 My Own Collection\nAudio : Punjabi\nSubtitle : English\nTech Info\nFormat : AVI\nFormat/Info : Audio Video Interleave\nFile size : 696 MiB\nDuration : 2h 3mn\nOverall bit rate : 788 Kbps\n\nVideo\nID : 0\nFormat : MPEG-4 Visual\nFormat profile : Advanced Simple@L5\nCodec ID/Hint : XviD\nDuration : 2h 3mn\nBit rate : 698 Kbps\nWidth : 656 pixels\nHeight : 272 pixels\nDisplay aspect ratio : 2.40:1\nFrame rate : 23.976 fps\nColor space : YUV\nChroma subsampling : 4:2:0\nBit depth : 8 bits\nScan type : Progressive\nCompression mode : Lossy\nBits/(Pixel*Frame) : 0.163\nStream size : 617 MiB (89%)\n\nAudio\nID : 1\nFormat : MPEG Audio\nFormat version : Version 1\nFormat profile : Layer 3\nMode : Joint stereo\nMode extension : MS Stereo\nCodec ID : 55\nCodec ID/Hint : MP3\nDuration : 2h 3mn\nBit rate mode : Constant\nBit rate : 80.0 Kbps\nChannel(s) : 2 channels\nSampling rate : 32.0 KHz\nCompression mode : Lossy\nStream size : 70.7 MiB (10%)\nScreen Shot\n &lt;a href=&quot;\nhttp://i.imgur.com/RekfPYC.png&quot; rel=&quot;nofollow&quot; target=&quot;_NEW&quot;&gt;\nhttp://i.imgur.com/RekfPYC.png&lt;/a&gt; &lt;a href=&quot;\nhttp://i.imgur.com/aa7fPBk.png&quot; rel=&quot;nofollow&quot; target=&quot;_NEW&quot;&gt;\nhttp://i.imgur.com/aa7fPBk.png&lt;/a&gt; &lt;a href=&quot;\nhttp://i.imgur.com/0Q5Piwj.png&quot; rel=&quot;nofollow&quot; target=&quot;_NEW&quot;&gt;\nhttp://i.imgur.com/0Q5Piwj.png&lt;/a&gt; &lt;a href=&quot;\nhttp://i.imgur.com/0syTg8T.png&quot; rel=&quot;nofollow&quot; target=&quot;_NEW&quot;&gt;\nhttp://i.imgur.com/0syTg8T.png&lt;/a&gt;","torrent":{"xt":"urn:btih:238952ef879de54fb0ceeb8d0e72ea54c4212619","amp;dn":"Romeo+Ranjha+%282014%29+DVDRip+-+XviD+-+1CD+Esub+%5BDDR+ExclusivE%5D","amp;tr":["udp%3A%2F%2Ftracker.openbittorrent.com%3A80","udp%3A%2F%2Fopen.demonii.com%3A1337","udp%3A%2F%2Ftracker.coppersurfer.tk%3A6969","udp%3A%2F%2Fexodus.desync.com%3A6969"],"infoHash":"238952ef879de54fb0ceeb8d0e72ea54c4212619","infoHashBuffer":{"type":"Buffer","data":[35,137,82,239,135,157,229,79,176,206,235,141,14,114,234,84,196,33,38,25]},"announce":[],"urlList":[]}}